# xmcd
#
# Track frame offsets: 
#        150
#        21302
#        40720
#        61455
#        79782
#        100527
#        119512
#        136015
#        154635
#        175297
#
# Disc length: 2634 seconds
#
# Revision: 1
# Processed by: cddbd v1.5.2PL0 Copyright (c) Steve Scherf et al.
# Submitted via: ExactAudioCopyFreeDBPlugin 1.0
#
DISCID=760a480a
DTITLE=斉藤さおり - BETTER DAYS
DYEAR=1987
DGENRE=JPop
TTITLE0=BETTER DAYS
TTITLE1=地球よ止まれ
TTITLE2=瞳を閉じてDOWN TOWN
TTITLE3=SEASON
TTITLE4=ラスト・テーマ
TTITLE5=涙をGET AWAY(extra remixed version)
TTITLE6=GEMINI(双子座)
TTITLE7=夏へのFREE WAY
TTITLE8=開き直ってBABY IT'S YOU
TTITLE9=BE MY FRIEND
EXTD=YEAR: 1987
EXTT0=
EXTT1=
EXTT2=
EXTT3=
EXTT4=
EXTT5=
EXTT6=
EXTT7=
EXTT8=
EXTT9=
PLAYORDER=
